<?xml version="1.0" encoding="UTF-8"?>
<svg width="400" height="400" version="1.1" xmlns="http://www.w3.org/2000/svg">
  <g fill="#152752" fill-rule="evenodd" stroke-width=".6">
    <path d="m189.27 0.362c63.065-3.7334 113.74 21.879 146.49 53.009 32.194 30.603 61.381 75.685 64.011 135.6 2.9205 66.53-21.329 111.66-52.932 146.7-30.344 33.641-75.784 61.479-135.41 64.104-63.392 2.791-111.03-21.144-146.49-53.009-34.424-30.933-61.433-74.818-64.626-134.99-3.4338-64.692 22.174-114.61 52.316-147.32 22.634-24.561 53.783-46.229 92.323-57.324 13.932-4.0102 29.981-5.9315 44.315-6.7802zm-131.71 63.487c-29.91 32.588-57.481 78.168-54.778 142.38 2.4638 58.55 27.424 103.98 60.933 136.22 32.251 31.028 79.658 57.226 142.79 54.858 57.663-2.1629 104.02-27.659 136.02-61.022 31.154-32.476 57.287-79.53 54.778-142.38-2.3825-59.679-27.995-105.78-60.933-136.22-32.274-29.828-80.476-57.83-142.79-54.858-61.97 2.9549-105.02 27.239-136.02 61.022z"/>
    <path d="m197.27 25.018c4.3983 2.1697 14.948-1.8202 17.234 2.4655-0.21542 2.8551-3.9711 0.32976-5.5394 0.61638-1.4329 5.9617-0.20742 14.585-0.61549 21.573h-6.1549c0.8543-6.5411 1.162-13.629 1.231-20.957-1.3559-1.7129-4.386 0.08629-6.1549 0v-3.6983z"/>
    <path d="m186.19 25.634c6.9027 5.0038 7.4843 16.338 12.925 22.806-1.5289 0.93444-3.7354 1.1902-6.1549 1.2328-0.7312-2.3503-1.636-4.5255-2.462-6.7802-2.8091-0.34764-3.8333 1.0922-6.7704 0.61638-2.7026 1.6081 0.0289 8.6583-5.5394 7.3966 2.7088-8.3822 4.0696-18.114 8.0014-25.272zm-1.8465 15.41c2.1536 0.10232 3.9397-0.16396 4.9239-1.2328-2.0902-0.98868-0.99771-5.1647-3.6929-5.5474-6e-3 2.6671-1.4286 3.9109-1.231 6.7802z"/>
    <path d="m174.5 26.867c1.9388-0.29771 0.46101 2.8255 1.8465 3.0819-0.68627 1.573-4.7608-0.24717-5.5394 1.2328 0.36744 7.8503 2.4059 14.028 3.6929 20.957-2.1536-0.10232-3.9397 0.16396-4.9239 1.2328-2.0422-6.3789-3.0559-13.788-4.3084-20.957-2.6004-0.13869-3.9748 0.95046-6.1549 1.2328 0.445-1.8837-0.62903-2.2461-0.61549-3.6983 5.9955-0.3649 11.383-1.3388 16.003-3.0819z"/>
    <path d="m228.04 26.867c3.5212 1.4047 7.8487 2.002 12.31 2.4655 0.0135 1.4522-1.0605 1.8146-0.61549 3.6983-1.9868-0.88698-4.5663-1.1798-6.7704-1.8491-1.0833 1.7918-1.4027 4.3486-1.8465 6.7802 1.8249 1.0491 5.0673 0.67802 7.3858 1.2328 0.25174 1.4849-1.1239 1.34-0.61549 3.0819-2.8651 0.19786-4.1072-1.2291-6.7704-1.2328-1.3688 1.9163-1.6649 4.9076-1.8465 8.013 1.8335 1.8621 8.1189-0.73411 6.7704 4.3147-4.3792-0.5455-7.8721-1.9786-12.925-1.8491 1.7-8.1597 3.2781-16.441 4.9239-24.655z"/>
    <path d="m243.43 29.949c4.9694 2.214 10.542 3.8247 16.618 4.9311 0.25173 1.4849-1.1239 1.34-0.61549 3.0819-2.6029 0.14115-3.9545-0.9708-5.5394-1.8491-2.5457 6.2853-4.8033 12.86-6.1549 20.341-2.521 0.26504-3.9434-0.57139-5.5394-1.2328 1.7714-6.8554 3.6824-13.571 6.1549-19.724-0.61918-1.8455-3.7089-1.2167-5.5394-1.8491-0.44623-1.8855 1.0617-1.8128 0.61548-3.6983z"/>
    <path d="m156.03 31.182c0.0511 0.97573-0.29605 2.3509 0.61549 2.4655-1.1294 2.1561-5.1381 1.4288-7.3859 2.4655 0.6635 2.2116 1.5486 4.2019 1.8465 6.7802 2.6411-0.43702 5.1504-1.0059 6.7704-2.4655 0.88261 0.76 1.1664 2.1197 1.231 3.6983-2.6632 0.0037-3.9053 1.4306-6.7704 1.2328 0.40684 3.2909 1.4095 5.9851 2.462 8.6294 2.5235-0.76 4.2912-2.2775 7.3859-2.4655 0.0511 0.97573-0.29605 2.3509 0.61549 2.4655-3.1525 2.3903-8.6735 2.4088-12.31 4.3147-2.3524-7.7116-4.2684-15.86-7.3858-22.806 4.1441-1.6032 8.3183-3.1756 12.925-4.3147z"/>
    <path d="m220.04 35.496c0.39945 2.2492-0.41484 3.2829-1.231 4.3147-2.4453 0.39448-3.3218-0.78281-4.3084-1.8491-0.23143-3.591 3.4855-4.4749 5.5394-2.4655z"/>
    <path d="m146.18 60.152c-2.1339 0.32853-3.2775 1.6488-5.5394 1.8491-1.7652-8.7107-5.8514-15.097-8.6168-22.806 1.636-0.41606 3.1341-0.97019 4.3084-1.8491 4.4161 6.4671 6.3543 15.416 9.8478 22.806z"/>
    <path d="m271.74 40.427c2.3746 0.08753 2.8442 2.0828 5.5394 1.8491-2.966 6.4806-6.5974 12.296-9.2323 19.108 1.1479 2.1376 4.3755 2.1931 6.1549 3.6983-2.3536 5.969-7.6739-2.8853-12.31-2.4655 2.9106-7.7689 7.0018-14.356 9.8478-22.19z"/>
    <path d="m125.26 58.302c1.0063 3.9233 3.7188 6.1379 4.9239 9.8621-3.0756-0.61453-3.0128 1.9139-5.5394 1.8491-2.758-8.1276-7.8616-13.906-10.463-22.19 5.1658-0.78527 6.614-5.2935 13.541-4.3147 5.7437 3.1713 4.0708 13.821-2.462 14.793zm-5.5394-9.8621c1.7855 2.3207 1.9271 6.289 4.9239 7.3966 3.4073-1.6291 1.055-6.7821-0.61549-8.6294-1.7412 0.1054-4.2222-0.53009-4.3084 1.2328z"/>
    <path d="m263.13 47.208c0.74966 3.6595-4.2333 3.7581-5.5394 1.8491-1.2901-4.2487 4.9011-4.8355 5.5394-1.8491z"/>
    <path d="m287.75 48.44c2.0563 0.4062 3.0104 1.9163 4.9239 2.4655-3.5323 7.5575-8.8569 13.321-12.31 20.957-2.0564-0.4062-3.0104-1.9163-4.9239-2.4655 3.7563-7.3325 8.4974-13.68 12.31-20.957z"/>
    <path d="m309.92 62.617c0.2911 1.9354-1.6563 1.6285-1.8465 3.0819-1.4181-1.2506-3.1255-2.2116-4.3084-3.6983-4.5793 5.2762-8.5922 11.12-12.31 17.259-2.2472-0.42037-3.0011-2.3367-4.9239-3.0819 3.9373-5.9185 8.783-10.929 12.31-17.259-1.2329-1.0257-2.2798-2.2369-4.3084-2.4655-0.4586-1.8972 1.6895-1.1847 1.2309-3.0819 5.5727 2.227 8.6199 6.9824 14.156 9.2457z"/>
    <path d="m100.64 56.453c1.5818 0.05979 0.88015 2.4057 2.462 2.4655-1.5184 1.9718-4.3256 2.6541-6.1549 4.3147 1.1904 2.0951 2.3702 4.2013 4.3084 5.5474 2.5875-0.49187 4.0973-4.6518 6.7704-3.0819-0.10033 0.71685 0.13602 1.0965 0.61549 1.2328-1.3959 1.8898-3.8856 2.6837-5.5394 4.3147 2.5426 6.4788 6.4331 7.5377 11.079 2.4655 0.26404 1.1736 1.3258 1.5484 1.231 3.0819-4.3546 1.3918-6.5303 4.9662-9.8478 7.3966-4.7282-6.771-9.417-13.581-14.772-19.724 3.131-2.8224 7.2837-4.6223 9.8478-8.013z"/>
    <path d="m114.79 59.535c0.35453 1.2889 1.5258 1.7592 1.231 3.6983-1.0857 1.6162-4.4537 1.6162-5.5394 0-0.43084-3.1029 1.2765-4.0632 4.3084-3.6983z"/>
    <path d="m239.74 335.06c-0.31821-3.7488 6.0675-4.1396 9.8478-5.5474 26.636-9.9188 47.884-27.113 63.395-49.927 17.304-25.451 31.019-59.993 23.388-102.94-6.3629-35.805-24.022-61.525-48.008-81.979-22.956-19.576-55.208-34.667-97.247-32.052-37.473 2.3312-65.298 18.76-86.784 38.832-21.606 20.184-37.041 49.195-40.622 85.061-7.4049 74.16 38.299 125.51 90.477 143.62 3.1728 1.1009 8.085 1.7129 9.8478 5.5474-3.8905 1.0583-8.3171-1.165-11.694-2.4655-26.661-10.267-48.325-27.008-64.626-48.694-18.609-24.756-32.111-59.204-27.081-101.7 6.3801-53.919 41.19-92.043 83.706-110.95 15.919-7.0785 33.446-12.172 54.778-12.328 46.057-0.33654 78.43 19.371 102.79 43.763 24.274 24.308 41.987 59.689 39.391 106.63-1.8729 33.876-15.841 60.533-33.236 80.746-17.684 20.549-39.127 37.617-68.319 44.38z"/>
    <path d="m196.65 65.699c4.4414 6.4412 6.8793 14.89 9.8478 22.806-1.4236-1.6451-4.7214 0.42285-5.5394-0.61638-0.37975-2.2905-1.4667-3.8734-1.8465-6.1638-2.7642-0.30265-4.6118 0.3125-6.7704 0.61637-1.4581 2.2381-0.15571 7.2407-4.9239 6.1638 3.5828-7.0964 4.0081-17.354 9.2323-22.806zm-3.0774 14.177c1.9985 0.35751 2.8632-0.41975 4.3084-0.61638-0.77121-2.1043-1.3227-4.4281-2.462-6.1638-0.37606 2.4994-2.1228 3.6268-1.8465 6.7802z"/>
    <path d="m313.02 65.699c2.553 3.5966 10.959 5.8433 8.0013 11.095-2.1043-1.5909-3.9508-3.44-5.5394-5.5474-1.4137 2.0772-3.5507 3.4302-4.9239 5.5474 2.1376 1.1465 2.8516 3.7186 5.5394 4.3147-0.1902 1.4534-2.1376 1.1465-1.8464 3.0819-2.2183-1.2716-3.3212-3.6595-5.5394-4.9311-2.1979 1.4972-3.8216 3.5701-5.5394 5.5474 1.5061 1.9848 3.0867 3.8949 5.5394 4.9311-3.4504 5.6282-7.4388-4.3504-11.694-5.5474 4.7842-6.7149 11.069-11.927 16.003-18.491z"/>
    <path d="m211.43 66.315c3.5729 0.73658 7.1754 1.4436 11.694 1.2328 0.25173 1.4849-1.1239 1.34-0.61549 3.0819-2.0262-0.02589-3.0645-1.0405-5.5394-0.61638-1.8428 0.62008-1.215 3.7143-1.8465 5.5474 1.7375 0.93073 4.2481 1.0879 6.7704 1.2328 0.25174 1.4849-1.1239 1.34-0.61549 3.0819-1.4519-0.80561-4.2536-0.2601-5.5394-1.2328-1.8852 1.1946-0.98293 5.1795-1.8465 7.3966 1.0531 1.4109 4.698 0.22621 6.7704 0.61639v3.0819c-4.4567-0.0573-7.4911-1.5379-12.31-1.2328 1.7898-6.6317 2.0053-14.839 3.0774-22.19z"/>
    <path d="m175.11 68.781c0.6795 6.7161 2.5629 12.227 3.0774 19.108 2.5026 0.21944 5.1609-2.6036 7.3859-0.61638-0.34221 4.7936-8.6833 1.5773-11.079 4.3147-1.6126-7.2203-3.1544-14.511-4.3084-22.19 1.9819 0.1356 2.6041-1.0904 4.9239-0.61638z"/>
    <path d="m87.1 100.22c-5.4883-5.5986-9.9604-12.215-16.618-16.642 4.9824-4.3923 8.8981-12.934 17.849-11.095 6.0755 1.2482 11.644 9.3154 9.8478 16.642-1.186 4.838-7.296 7.4459-11.079 11.095zm-10.463-18.491c5.0993 3.9338 8.4131 9.655 13.541 13.56 11.851-7.9464-7.4566-27.298-13.541-13.56z"/>
    <path d="m241.58 72.479c1.7394-0.50913 1.5947 0.86848 3.0774 0.61638-0.35205 5.9 0.42346 10.671 0.61549 16.026 4.9645-2.4711 8.2377-9.7684 12.925-10.479 0.0166 0.59974 0.75398 0.47832 1.231 0.61638-1.1516 7.8866-4.2081 13.867-5.5394 21.573-1.884-0.37353-3.2067-1.3086-4.9239-1.8491 1.5953-3.5393 2.18-8.09 3.6929-11.711-4.0228-0.0647-7.5994 8.7489-11.694 8.6294-0.87953-4.2555-0.58656-9.6852-0.61548-14.793-3.5581 2.8058-3.5828 9.1508-7.3859 11.711-0.0166-0.59974-0.75336-0.47832-1.231-0.61639 1.2002-6.2353 7.5256-12.568 9.8478-19.724z"/>
    <path d="m167.73 89.735c-4.7325 13.406-26.402 7.6185-22.773-8.013 2.955-12.727 28.217-10.509 22.773 8.013zm-11.079 4.9311c10.72 1.1434 6.4048-19.766-2.462-17.875-8.2229 1.7536-4.0881 17.176 2.462 17.875z"/>
    <path d="m231.74 80.495c0.0948 1.5336-0.96694 1.9083-1.231 3.0819-2.2459 0.40003-3.2781-0.41544-4.3084-1.2328-0.95032-4.8318 4.674-5.3262 5.5394-1.8491z"/>
    <path d="m320.32 91.585c-3.4104 1.7209-4.9731 5.2929-8.6168 6.7802-0.2166-2.0433-1.8434-2.6739-3.0774-3.6983 6.5217-5.1801 12.051-11.354 19.08-16.026 3.7902 4.0952 11.708 12.356 3.0774 16.642-2.3776 0.12142-4.5355 0.0222-6.1548-0.61639-1.9185 3.8314-3.1206 8.3803-4.3085 12.944-1.4599-1.8251-3.5156-3.0542-4.3084-5.5474 1.828-3.1004 2.5654-7.293 4.3084-10.478zm2.462-0.61639c2.7642 1.8362 5.9444-0.39263 7.3858-1.8491 0.1465-2.6128-0.049-4.8824-1.8464-5.5474-1.2021 2.8317-6.3408 4.5649-5.5394 7.3966z"/>
    <path d="m146.8 102.06c-1.972 0.2854-2.1702 2.3472-4.3084 2.4655-1.2821-3.2366-3.3821-5.6535-4.9239-8.6294-3.3366 0.56276-4.5484 3.2526-7.3858 4.3147 1.524 3.199 3.4387 6.0073 5.5394 8.6294-1.1768 1.4923-2.7272 2.6104-4.9239 3.0819-2.4416-7.6222-8.0358-12.087-11.079-19.108 2.2071 0.15594 2.2552-1.851 4.3084-1.8492 1.2925 2.4039 2.6608 4.732 4.3084 6.7802 2.9008-0.99854 4.9658-2.8341 7.3858-4.3147-1.1565-3.1565-3.9477-4.6759-4.9239-8.013 1.5726-0.069 2.1542-1.1298 3.0774-1.8492 5.6662 4.8041 8.8513 12.093 12.925 18.491z"/>
    <path d="m276.67 89.125c-1.716 7.9384-4.0296 15.278-5.5394 23.423-1.4058-1.0577-3.1094-1.8171-4.3084-3.0819-0.19141-2.4514 1.4224-3.0961 1.231-5.5474-0.62841-2.4526-3.1138-3.0456-4.9239-4.3147-2.8897 0.91349-4.8371 5.3934-8.0014 2.4655 5.8952-5.1912 13.269-8.9018 19.08-14.177 0.9103 0.32113 1.551 0.91163 2.462 1.2328zm-11.079 8.013c0.14094 2.1191 1.8317 2.6856 3.6929 3.0819-0.45792-2.3429 2.5192-4.4158 0.61549-6.1638-1.6126 0.85061-2.1185 2.8095-4.3084 3.0819z"/>
    <path d="m77.86 95.285c0.30282 2.5635-0.72996 3.7889-2.462 4.3147-1.8046-0.0419-2.2859-1.409-3.0774-2.4655-0.25727-3.1657 4.0474-3.9442 5.5394-1.8491z"/>
    <path d="m282.82 110.08c-2.1222 2.3952-4.73 4.3036-6.1549 7.3966-1.6237-1.2506-3.5981-2.1493-4.3084-4.3147 6.1463-4.1174 10.085-10.447 15.387-15.41 5.8613 2.2344 13.942 16.597-0.61549 15.41-1.6163 3.3124-2.209 7.6499-3.0774 11.711-1.695-1.1791-3.1316-2.6172-4.3084-4.3147 1.1657-3.3525 1.684-7.3534 3.0774-10.478zm1.231-0.61639c4.2413 2.2929 9.1486-1.9003 6.7704-6.1638-3.5501 0.75938-5.2409 3.3809-6.7704 6.1638z"/>
    <path d="m116.64 102.06c-19.991 2.4403 7.2831 28.69 9.8478 9.2457 4.0672 5.8963-5.3375 12.869-12.925 11.095-5.4015-1.2636-8.8883-7.8046-8.0013-15.41 1.4846-3.3334 8.463-12.344 11.079-4.9311z"/>
    <path d="m67.4 99.605c11.995 3.1442 12.765 23.619 0 25.888-7.4646 1.3264-12.803-3.4098-16.003-9.2458-0.54963-11.44 4.237-17.536 16.003-16.642zm-12.925 10.479c-0.24435 9.708 18.713 16.385 19.08 4.931 0.20865-6.5207-8.9867-11.713-14.156-10.478-3.8142 0.91101-4.8513 2.6584-4.9239 5.5474z"/>
    <path d="m333.92 100.22c-0.01 1.6371 0.2326 3.5202-0.6155 4.3147-2.2459 0.40003-3.2781-0.41544-4.3084-1.2328-0.5872-3.1343 2.6293-4.777 4.9239-3.0819z"/>
    <path d="m340.72 107c19.787-3.1787 18.426 26.18 0.6155 25.272-5.7086-0.29093-14.641-5.4796-11.694-17.259 0.7718-3.0862 5.0851-7.0502 11.079-8.013zm-8.0013 15.41c1.6698 11.102 26.422 1.1804 17.849-9.8621-7.3003-3.3346-18.98 2.3398-17.849 9.8621z"/>
    <path d="m303.12 113.16c1.6076 4.3597 6.9261 5.6319 6.7704 10.478-0.2272 7.094-10.523 8.1658-14.156 1.8492-2.585 1.52-5.0008 3.2101-6.7704 5.5474-1.6723-0.79082-1.7714-3.1571-3.6929-3.6983 5.532-5.1437 12.438-8.9117 17.849-14.177zm-5.5394 11.095c2.5524 2.447 6.1881 0.51837 8.0013-1.2328 0.099-1.9478 0.022-3.7199-1.2309-4.3147-2.0539 2.0526-5.1351 3.0758-6.7704 5.5474z"/>
    <path d="m100.02 119.94c-3.2935-0.62686-4.4875 0.84815-5.5394 2.4655 0.0419 1.8072 1.407 2.2892 2.462 3.0819 4.5146-0.2823 5.5049-2.8631 9.2323-2.4655 8.0253 0.85615 8.0007 12.162 1.231 15.41-1.62-0.63795-2.073-2.444-3.6929-3.0819 3.0085-0.68542 6.2066-1.181 6.7704-4.3147-0.62103-1.2272-1.0642-2.6326-2.462-3.0819-6.1026 2.5635-15.105 4.4084-16.003-3.0819-0.43207-3.6058 1.8797-6.2162 4.9239-8.6294 1.234 1.0244 2.8608 1.655 3.0774 3.6983z"/>
    <path d="m58.78 150.76c-8.018-2.4489-14.317-6.6193-22.773-8.6294 0.67273-15.095 17.277-22.764 25.235-11.711 4.298 5.9697-0.0597 13.63-2.462 20.341zm-18.465-13.56c5.8354 2.7854 11.877 5.3644 17.849 8.013 8.8907-11.728-15.561-21.661-17.849-8.013z"/>
    <path d="m314.82 129.8c1.3239 1.1397 1.6248 3.3038 3.0774 4.3147-5.5954 3.8623-22.614 7.7412-13.541 16.642 8.7023 0.90423 12.014-6.8671 18.465-6.1638-0.1883 7.8065-30.006 15.298-24.62-3.6983 1.7634-6.2193 12.112-6.2279 16.618-11.095z"/>
    <path d="m361.02 130.42c1.9093 3.5128 5.9303 8.0376 4.9239 12.328-1.6408 6.9972-14.746 6.5743-14.772-2.4655-3.8886 0.83149-6.5746 2.8668-10.463 3.6983 0.1915-2.4514-1.4223-3.0961-1.2309-5.5474 7.4935-2.3577 14.419-5.2842 21.542-8.013zm-8.0013 8.6294c0.4561 5.0457 10.399 3.6533 9.2323-1.8492-0.1305-0.69158-0.6826-0.9597-1.231-1.2328-2.1142 1.581-5.2913 2.0976-8.0013 3.0819z"/>
    <path d="m99.41 137.2c0.74966 3.6595-4.2333 3.7581-5.5394 1.8492-1.0014-3.959 4.73-5.0063 5.5394-1.8492z"/>
    <path d="m79.71 142.14c7.7761 1.4584 14.629 3.8413 22.158 5.5474-0.5244 1.7351-1.988 2.529-1.8465 4.9311-4.2413-1.0947-7.8604-2.8126-12.31-3.6983 1.0962 3.4289 7.1107 7.256 9.2323 11.711-3.9693 1.3665-10.411 0.25764-15.387 0.61638 3.3101 3.26 9.5179 3.6176 12.31 7.3966-2.2459 2.7152-7.0141-1.1422-10.463-3.0819-3.4892-1.9626-8.7448-4.1618-9.8478-7.3966 3.1821-2.7713 11.72-0.17999 16.003-1.8492-0.38775-4.9545-11.116-7.4884-9.8478-14.177z"/>
    <path d="m367.12 147.06c3.6271 3.7642 3.2836 11.505 5.5394 16.642-1.8828-0.44687-1.8101 1.0633-3.6929 0.61639 0.4234-2.4785-0.5897-3.5183-0.6155-5.5474-6.8288 1.5853-13.825 3.003-19.696 5.5474-1.7923-0.87588-1.6889-3.6502-2.462-5.5474 6.6375-1.777 13.565-3.2625 20.311-4.9311 0.3786-2.8452-1.3817-3.5473-1.2309-6.1638 0.8739 0.053 1.743 0.1017 1.8464-0.61638z"/>
    <path d="m47.09 150.14c1.4236 2.7164 0.26343 5.8143-3.6929 4.9311-1.7148-2.4816-0.42838-6.3383 3.6929-4.9311z"/>
    <path d="m316.02 161.86c-3.1808 0.92396-5.5714 2.6387-9.2323 3.0819-0.6069-1.4466-1.0796-3.0283-1.231-4.9311 7.994-1.2402 14.021-4.4497 21.542-6.1638 0.095 5.267 4.282 9.3961 1.231 14.177-3.0276 1.9188-8.098 1.4504-9.8478-1.2328-3.0208 2.5222-5.9161 5.1702-8.0014 8.6294-5.399-5.8236 3.1341-9.8276 5.5394-13.56zm1.8465-0.61638c0.445 5.831 10.782 3.5054 8.0013-1.8492-3.0632 0.22005-4.842 1.7252-8.0013 1.8492z"/>
    <path d="m196.04 164.32c-4.1053-1.1668-10.785-4.4361-14.772-1.8492-0.28066 2.8988 2.2798 0.79699 3.6929 1.2328 3.1433 0.96895 6.1167 4.0854 9.2323 4.9311-3.552 3.2231-11.042 2.5025-16.618 3.6983-1.9412-1.3431-1.0414-5.5314-1.231-8.6294 2.8472-10.478 18.074-6.9848 19.696 0.61639zm-11.079 3.0819c-0.91031-0.32112-1.5516-0.91162-2.462-1.2328-1.1454 2.0575 2.2127 2.595 2.462 1.2328z"/>
    <path d="m32.32 156.92c0.92077 1.3382 3.5304 0.98437 3.6929 3.0819-1.8766-0.0302-3.1334 0.5603-3.6929 1.8492-0.75705 3.4289 1.3916 3.9479 3.0774 4.9311 4.5583-1.4849 4.6642-6.4825 8.6168-7.3966 9.5838-2.2171 13.652 9.1607 7.3859 15.41-1.8914-0.16026-2.7678-1.3369-4.3084-1.8491 1.7554-1.324 4.029-2.129 4.9239-4.3147-0.421-1.8387-0.74598-3.7729-2.462-4.3147-5.3 0.23977-6.3475 4.7381-9.8478 6.7802-10.211 2.831-12.198-9.3246-7.3859-14.177z"/>
    <path d="m363.42 171.1c-10.402 3.1701 0.2031-12.003 0 0z"/>
    <path d="m70.48 170.48c5.5763 2.9623 16.043 0.33655 19.696 5.5474 3.1716 4.5255 1.106 12.052-3.6929 14.793-7.7047 0.7298-12.293-1.6599-19.08-1.8491 0.37237-1.4762 0.88507-2.8126 0.61549-4.9311 6.6085 0.10663 12.992 3.22 19.696 1.2328 6.0398-11.845-12.293-8.7311-17.849-12.944 0.72135-0.0998 0.51886-1.1237 0.61549-1.8492z"/>
    <path d="m330.82 192.68c-1.4568-1.2463 1.6797-3.6952 1.231-6.7802-1.3134-9.0275-22.882-7.8398-17.849 4.9311 3.0608 0.18862 5.6471-0.0973 8.0013-0.61638-0.4733 2.3232 0.7509 2.9463 0.6155 4.9311-3.7588-0.47647-5.7585 0.80746-9.2323 0.61638-11.358-15.426 11.264-29.189 19.08-16.026 1.972 3.3211 4.2616 13.763-1.8465 12.944z"/>
    <path d="m32.32 176.64c-0.0659 2.8101-4.0813 1.6655-3.0774 5.5474-0.10402 1.5428 0.94539 1.9293 1.8465 2.4655 5.6256-1.311 8.2297-10.391 16.003-8.013 3.8702 1.1841 6.3777 9.5398 2.462 14.793-1.4292-0.82904-3.4947-1.0201-4.9239-1.8492 4.5405-0.77911 6.7384-7.2277 1.8465-9.2457-5.316 1.6704-7.1815 11.042-15.387 8.6294-3.5957-1.0571-8.3872-13.503 1.231-12.328z"/>
    <path d="m351.12 178.5c7.7115 1.7283 20.063-1.1896 24.62 3.6983-4.0055 4.2068-11.049 5.3724-15.387 9.2458 4.9239 2.8766 11.335 4.2635 16.618 6.7802-0.5164 0.71562-0.8118 1.6525-0.6155 3.0819-8.7331 0.49988-15.724 2.7441-24.004 3.6983v-5.5474c5.3055-0.23422 9.6927-1.3881 14.772-1.8491-4.458-2.9315-10.814-3.964-15.387-6.7802 3.3741-4.0176 9.244-5.5357 14.156-8.013-2.99-2.3478-9.8939-0.77541-14.772-1.2328v-3.0819z"/>
    <path d="m261.28 206.24h6.7704v3.6983c-3.976-0.33285-9.3308 0.715-12.31-0.61638 0.81614-6.1682 6.5236-7.4379 8.0013-12.944 0.0425-3.9954-5.2544-1.3758-6.7704-2.4655 1.5738-6.7198 12.317-4.0071 10.463 4.9311-0.68319 3.2964-4.3614 4.0083-6.1549 7.3966z"/>
    <path d="m272.97 190.82h11.694c0.0425 3.8604-2.0366 7.9248-3.6929 11.095-1.5196 2.9075-3.3212 7.4903-6.1549 7.3966-2.0354-3.7649 4.4186-9.4855 5.5394-14.177-1.2076-1.6673-6.1198 0.37599-7.3859-1.2328v-3.0819z"/>
    <path d="m133.26 192.06v19.108h-3.6929v-15.41c-0.5564-2.2393-3.4744 1.2845-3.6929-0.61638-0.54163-4.0355 4.57-2.4088 7.3858-3.0819z"/>
    <path d="m143.11 192.06c2.9845 0.70945 8.8729-1.4892 9.8478 1.2328 0.0874 2.5531-4.2826 0.64227-6.1549 1.2328v4.3147c1.679 0.98929 4.7448 0.58988 6.1549 1.8492 3.5495 7.9267-4.4284 14.038-11.079 9.8621-0.0529-0.87464-0.10156-1.7456 0.61549-1.8492 0.42038-2.8742 3.9902 1.128 5.5394-0.61638 1.2156-0.42592 1.6409-1.6439 1.8465-3.0819-0.36868-3.1238-3.8708-3.1096-7.3858-3.0819-0.37114-3.8647 0.46531-6.5195 0.61549-9.8621z"/>
    <path d="m26.16 193.3c1.8945 0.43148 1.183 0.43148 3.0774 0v7.3966c1.0531 1.4103 4.698 0.22621 6.7704 0.61639 0.64442-2.2313-1.3965-7.1513 1.231-7.3966 3.5157-0.64412 1.1682 4.5828 1.8465 6.7802 1.4569 1.4177 5.524 0.22066 8.0013 0.61639 1.5793-2.0322-0.0899-4.9292 0-7.3966h3.6929c-0.75767 2.7478-1.2125 9.0405 0 11.711-6.9778 1.4356-16.616 0.2071-24.62 0.61639v-12.944z"/>
    <path d="m86.48 193.9h3.0774v12.328c-5.7831-0.993-15.768-1.0509-21.542 0-1.3972-0.65522-0.2345-3.8746-0.61549-5.5474 5.9764 0.79451 12.9 0.64165 19.696 0.61639 0.41423-3.0856-0.56994-4.7708-0.61549-7.3966z"/>
    <path d="m335.12 201.3c-0.8556 3.4579-1.2261 7.4015-1.231 11.711-3.3514 0.27737-2.7082-4.626-1.8465-6.7802-1.1651-1.0935-4.0647-0.44935-6.1549-0.61639-2.0415 1.0374 0.1484 6.3124-2.4619 6.7802-2.2158 0.37846-0.7829-4.2487-0.6155-6.7802-1.2544-1.4146-5.1116-0.22313-7.3859-0.61638-1.4082 1.0552-0.2258 4.7048-0.6154 6.7802-5.2822 0.38524-1.2692-6.5108-2.462-11.095 7.0061-1.6112 15.32 0.63734 22.773 0.61639z"/>
    <path d="m86.48 209.32c-0.1034-1.3369 2.1831-0.27923 3.0774-0.61639 1.1134 3.4049 0.70905 8.3304 1.8465 11.711-7.5526 0.86047-15.289 1.5366-22.158 3.0819 0.26958-2.1191-0.24312-3.4542-0.61549-4.9311 5.7037-1.4793 13.025-1.3388 19.08-2.4655 0.0905-2.7614-0.0665-5.2756-1.231-6.7802z"/>
    <path d="m351.72 208.7c8.7541 0.0678 16.035 1.6106 24.62 1.8492-0.97 3.9596-0.5687 9.292-1.8464 12.944-1.0531 0.12944-1.5941-1.0509-1.8465 0-1.8852-1.9287 0.5392-4.7714 0-7.3966-1.4981-1.1705-4.914-0.42098-6.7704-1.2328-1.1792 1.4898-0.3883 4.9526-0.6154 7.3966h-3.693c0.9362-1.7333 0.586-4.7554 1.231-6.7802-1.0765-2.2091-6.0201-0.54612-8.0013-1.8492-1.4157 1.4584-0.2204 5.5327-0.6155 8.013-1.4495 0.0136-1.812-1.062-3.693-0.61638 1.0673-3.4518 1.3714-7.666 1.231-12.328z"/>
    <path d="m50.78 210.54v5.5474c-3.9176-0.22497-6.2915 1.0959-10.463 0.61639-1.4439 2.7312 0.30035 6.9084 0.61548 9.8621 4.5632 0.53378 8.9104-1.9915 11.694-1.2328v5.5474c-9.0772-0.2558-15.437 2.2104-24.004 2.4655 0.42345-2.4785-0.58964-3.5183-0.61549-5.5474 3.5569 0.27429 6.3069-0.25888 9.2323-0.61638 0.17172-3.8703-0.16188-7.2345-1.231-9.8621-3.0085 0.68542-6.0435 1.345-9.2323 1.8492 0.42346-2.4785-0.58963-3.5183-0.61548-5.5474 7.9275-1.3061 16.614-1.8535 24.62-3.0819z"/>
    <path d="m311.72 214.86c6.5722 2.664 15.827 2.6418 21.542 6.1638-3.3655 5.8754-11.507 6.9682-17.234 10.479 3.8468 2.1062 9.7795 2.1228 14.156 3.6983-0.1169 0.49926-0.6173 0.61453-0.6154 1.2328-5.3382 1.5958-15.556-2.4631-21.542-4.3147 3.5741-5.6664 11.565-6.9096 17.234-10.479-3.3457-2.6079-9.3695-2.5333-14.156-3.6983 0.517-0.71562 0.8119-1.6525 0.6155-3.0819z"/>
    <path d="m350.52 224.1c7.8592 1.7863 15.169 4.1224 24.004 4.9311-1.5978 6.6144-1.7129 17.319-11.694 13.56-1.3658-1.5089-2.4189-3.3309-3.0774-5.5474-4.7313 0.80932-7.7318 3.3519-12.925 3.6983 0.4346-2.0304 0.9885-3.9412 1.231-6.1638 4.5946-0.12389 7.2271-2.2134 11.694-2.4655-2.8233-1.4873-6.51-2.1099-10.463-2.4655 0.2739-1.986 1.1792-3.3396 1.2309-5.5474zm20.311 9.8621c-3.4485-0.24471-5.58-1.8085-9.2323-1.8492-1.4888 6.141 9.1911 7.8379 9.2323 1.8492z"/>
    <path d="m93.25 230.28c-7.4419 1.3819-14.478 3.1707-21.542 4.9311 0.32497-2.5857-1.0753-3.4431-1.231-5.5474 7.8105-0.80808 15.087-2.1487 20.927-4.9311 2.0945 0.36799 1.3331 3.596 1.8465 5.5474z"/>
    <path d="m75.4 241.98c1.8828 0.4475 1.8102-1.0639 3.6929-0.61637-7.6462 17.32 24.998 11.892 15.387-1.8492-3.3544 0.13376-4.6469 2.3318-8.0014 2.4655 0.405-2.2547-1.3319-2.3644-1.231-4.3147 10.569-9.1551 18.38 8.4734 11.694 16.026-7.557 8.5369-24.144 2.5148-21.542-11.711z"/>
    <path d="m45.24 237.66c-0.15633 2.1031-1.3165 3.2015-3.6929 3.0819-0.60133-0.63056-1.2168-1.2469-1.8465-1.8492-0.72197-4.2438 5.0765-4.7178 5.5394-1.2328z"/>
    <path d="m311.12 238.9c-2.9568 2e-3 -8.1724 5.0815-3.0774 8.013 4.8303-1.6692 10.06-8.0678 16.003-3.0819 2.2514 3.657 0.9607 9.5897-2.462 11.095-1.4618-0.38523-2.8651-0.82903-3.0774-2.4655 2.8552 0.18861 4.2548-1.0811 4.3084-3.6983 0.6481-2.293-2.076-1.2087-2.462-2.4655-4.3256 0.78341-4.4973 4.4244-8.0013 4.9311-8.8538 1.2796-11.784-9.1699-5.5394-14.793 2.02 0.23731 2.7137 1.8023 4.3084 2.4655z"/>
    <path d="m346.22 243.22c7.0061 3.0511 14.884 5.2294 22.773 7.3966 0.309 2.5697-1.7991 2.7189-1.231 5.5474-8.1681-2.0932-14.742-5.7829-23.388-7.3966 0.5896-1.875 1.2426-3.6866 1.8464-5.5474z"/>
    <path d="m44.63 245.06c10.319-2.2818 18.801 4.3806 16.618 15.41-3.1064 15.693-30.19 10.066-25.85-8.013 0.7829-3.2631 4.0241-6.2446 9.2323-7.3966zm-6.7704 12.944c-0.32067 11.377 21.113 5.5364 20.311-3.0819-0.48623-5.2282-4.2653-5.5135-9.2323-4.9311-6.7254 0.78835-10.934 2.8779-11.079 8.013z"/>
    <path d="m299.42 251.24c7.2319 2.8255 12.366 7.7504 19.696 10.478-0.086 2.1746-1.7609 2.7565-1.8465 4.9311-6.9784-3.0794-12.443-7.6734-19.696-10.479 0.086-2.1746 1.7609-2.7565 1.8465-4.931z"/>
    <path d="m106.79 259.24c-6.0176 4.4521-13.167 7.7714-19.696 11.711-0.0849-2.1746-1.7615-2.7565-1.8465-4.9311 6.4134-3.0283 12.746-6.1379 17.849-10.478 2.465-3e-3 2.0403 2.8884 3.6929 3.6983z"/>
    <path d="m341.92 255.54c5.8552 3.3821 12.85 5.6226 19.08 8.6294 1.0298-1.4343 1.6077-3.3211 1.8465-5.5475 1.8022-0.16087 1.8908 1.3936 3.6929 1.2328-2.3573 5.2411-4.9528 10.244-6.7703 16.026-3.9367-0.70575-1.6902-3.9633-0.6155-6.1638-5.5209-3.922-13.053-5.831-19.696-8.6294 1.0377-1.6309 1.4236-3.9165 2.4619-5.5474z"/>
    <path d="m298.82 263.56c-4.8513-3.0116-7.7417 5.4217-3.0775 6.7802 3.9305-1.3912 6.6824-4.3196 11.079-3.0819 7.6998 2.1684 4.0487 17.67-3.0774 11.711 0.095-1.774 4.573-0.0733 4.9239-3.0819 0.2948-1.9391-0.8765-2.4094-1.231-3.6983-5.8139-0.75507-6.6756 3.747-11.079 3.0819-11.159-1.6858-1.9523-22.459 2.462-11.711z"/>
    <path d="m116.02 272.8c-1.1208 1.255-3.5969 3.3445-4.9239 2.4655 2.0145-2.0865 1.3134-6.4856-1.231-7.3966-7.6444 2.0143 0.66288 19.247-12.31 16.026-2.481-0.61578-4.6488-3.8432-4.9239-8.013 1.1042 0.0783 1.2981-0.75444 2.462-0.61637 2.1985-0.33223-0.96939 5.6239 2.462 5.5474 6.4878 0.44934 2.2225-6.6292 3.0774-11.095 2.9679-7.2647 14.827-4.1205 15.387 3.0819z"/>
    <path d="m337.62 270.96c18.502-5.0716 21.89 21.888 8.6168 25.272-15.694 4.0003-24.574-20.898-8.6168-25.272zm-5.5394 9.8621c-0.2696 8.3951 12.746 13.101 17.234 9.8621 9.1935-6.6341-6.9027-16.861-12.31-15.41-2.7568 0.73965-4.8106 2.0248-4.9239 5.5474z"/>
    <path d="m60.63 278.96c3.3316-0.9782 5.8317-2.7891 8.0013-4.9311 1.7246 1.1489 2.3733 3.3765 3.0774 5.5474-7.5139 3.159-13.798 7.5495-20.927 11.095-1.5258-4.5656-6.1456-6.5466-5.5394-11.711 0.906-7.7159 13.071-7.2684 15.387 0zm-11.079 5.5474c3.5994-0.50481 5.0962-3.1152 8.6168-3.6983-1.0223-5.8513-11.855-1.8048-8.6168 3.6983z"/>
    <path d="m272.36 306.08c7.5145 4.5532-3.3913 17.714-7.3858 8.6294-0.24373-2.7965 2.7998 1.8948 4.3084-0.61638-0.17664-9.48-10.83-8.4679-19.08-9.8621 7.5317-8.5221 38.829 1.3961 40.007-11.095 0.81675-8.667-12.253-8.6059-10.463 1.8492-9.5382-5.7768 1.2187-13.876 8.0013-12.328 11.957 2.73 7.5416 26.186-11.694 20.341 2.0348 1.0442 4.767 1.3899 5.5394 3.6983-0.064 2.6067-1.6569 3.6829-3.6929 4.3147 0.68873-4.1828-3.1513-3.8296-5.5394-4.9311z"/>
    <path d="m130.18 298.7c1.9339-5.3601-3.4344-10.507-9.2323-8.013-4.6291 24.33 29.924-2.3108 38.16 12.944-9.3486-1.504-18.855 7.1772-12.925 15.41-9.7702 1.872-8.7682-12.904-3.0774-14.793-13.83 3.3075-30.876 3.2699-28.928-11.711 2.1585-16.604 32.083-2.6936 16.003 6.1638z"/>
    <path d="m82.17 294.38c-7.72 3.5688-13.013 9.5687-20.311 13.56-1.4353-5.1924-6.6774-5.974-6.1549-11.711 0.6912-7.5895 12.252-8.3483 14.772-0.61639 4.221-2.5635 9.5801-9.8917 11.694-1.2328zm-21.542 7.3966c3.6178-0.48571 4.4604-3.7519 8.0013-4.3147 0.25973-2.1093-1.8434-1.8522-2.462-3.0819-3.5631 0.46722-7.7194 3.1842-5.5394 7.3966z"/>
    <path d="m319.12 295c5.0624 6.8474 7.9872 15.834 12.31 23.423-0.757 0.26936-1.2642 0.78836-1.231 1.8492-8.346-3.1479-16.35-6.6378-24.62-9.8621 0.8506-1.8189 2.8424-2.4957 3.693-4.3147 2.1209 1.1631 4.7454 1.8226 6.7703 3.0819 1.4138-2.0772 3.5508-3.4302 4.9239-5.5474-1.0401-2.4514-2.9032-4.0786-3.6929-6.7802 0.8863-0.34517 1.5018-0.96156 1.8465-1.8491zm0 15.41c2.5684-0.0832 4.5927 3.5874 6.7703 1.8492-1.7399-1.5447-1.9529-4.6192-3.6929-6.1638-0.581 1.8837-2.995 1.9318-3.0774 4.3147z"/>
    <path d="m332.72 296.84c2.108 3.0382-2.0545 5.7804-4.9239 3.6983-1.0611-3.7834 2.4743-5.3872 4.9239-3.6983z"/>
    <path d="m70.48 317.18c-1.3565-1.5182-3.0454-2.7034-3.6929-4.9311 6.1949-4.4805 12.442-8.908 17.234-14.793 13.439 4.1784-11.776 14.296-13.541 19.724z"/>
    <path d="m90.17 303.62c3.4627 2.2849 5.2883 6.2094 9.2323 8.013-4.4494 7.2554-11.86 11.545-16.618 18.491-1.9332-0.73473-1.9382-3.4012-4.3084-3.6983 4.8728-5.3934 10.002-10.53 15.387-15.41-1.0642-2.8378-4.7836-3.0172-5.5394-6.1638 1.0525 0.0271 1.5941-0.45797 1.8465-1.2328z"/>
    <path d="m139.41 306.08c-3.3249 1.6014-3.5391 6.3179-7.3859 7.3966-1.4667-4.3104 2.1087-7.8909 7.3859-7.3966z"/>
    <path d="m306.82 314.1c5.6188 4.0299 8.5953 10.705 14.156 14.793-0.818 2.0575-3.6006 2.1468-4.3084 4.3147-4.1281-2.7676-8.4279-15.289-14.772-15.41-2.4238-0.0463-4.9577 1.8116-5.5394 3.6983-2.8657 9.292 12.483 12.836 9.8478 20.341-6.891-2.3515-24.333-28.047 0.6155-27.737z"/>
    <path d="m102.48 315.34c1.7418 0.92703 2.622 2.7158 4.9239 3.0819-4.5885 6.9109-10.794 12.201-15.387 19.108-2.4182-0.24903-2.6287-2.7096-4.9239-3.0819 4.6605-6.8388 11.422-11.573 15.387-19.108z"/>
    <path d="m109.87 322.12c2.3266 0.13561 2.9888 1.9379 4.9239 2.4655-1.6347 3.4998-3.9231 6.3444-6.1549 9.2458 1.684 2.6282 5.1196 3.5023 7.3858 5.5474 3.1722-2.1654 4.3023-6.3759 6.7704-9.2457 1.6834 0.57447 2.625 1.8911 4.3084 2.4655-3.8326 7.4619-9.0292 13.558-12.925 20.957-1.8108-0.858-2.329-3.0098-4.9239-3.0819 1.9548-2.5623 3.5188-5.516 5.5394-8.013-2.1659-2.145-5.292-3.3297-7.3858-5.5474-2.4613 2.0556-3.6141 5.4205-5.5394 8.013-2.3179-0.14423-2.606-2.3213-4.9239-2.4655 4.2401-6.8486 9.092-13.085 12.925-20.341z"/>
    <path d="m287.75 326.42c0.47823 1.3702 1.2931 2.4033 1.231 4.3147-1.8237-0.43393-2.6798-1.8362-5.5394-1.2328-1.4735 0.78465-2.5056 2.0106-2.462 4.3147 0.11695 0.49927 0.61734 0.61453 0.61549 1.2328 6.7765 1.8732 15.91 0.71499 16.003 8.6294 0.048 4.0749-3.3083 8.1073-9.8478 8.013 0.44684-1.8855-1.0623-1.8128-0.61549-3.6983 3.1027 1.0257 6.9809 0.86047 6.7704-3.0819-4.9166-4.5421-19.19-0.56708-16.003-12.944 0.77552-3.0104 4.8027-5.5154 9.8478-5.5474z"/>
    <path d="m282.82 356.64c-5.4846 0.44626-6.566 4.9434-11.694 4.3147-7.5459-0.92396-7.7712-13.53 0.61549-14.793-0.52871-4.1963-3.1421-6.305-4.3084-9.8621 1.7855-0.47215 3.5403-0.97512 4.3084-2.4655 4.3884 6.9053 7.384 15.206 11.079 22.806zm-6.7704 0.61638c0.73674-2.7676-1.4027-7.5038-3.6929-9.2457-3.7976 2.1888-1.3978 10.231 3.6929 9.2457z"/>
    <path d="m138.18 338.14c2.1874 0.0696 2.2373 2.2794 4.9239 1.8492-2.7014 8.1837-7.136 14.632-9.8478 22.806-3.5323-3.0418-11.512-2.881-12.31-8.6294-0.85922-6.1928 6.9255-11.458 12.925-6.7802 1.9874-2.5296 3.1673-5.8686 4.3084-9.2457zm-8.6168 19.724c0.48685-3.2114 2.9236-4.4688 3.0774-8.013-5.0224-3.7045-9.2785 7.796-3.0774 8.013z"/>
    <path d="m189.27 6.526c61.536-3.9683 110.87 21.655 142.79 51.16 31.86 29.445 59.089 74.084 61.549 132.52 2.7186 64.597-21.464 109.09-52.316 141.77-16.823 17.821-34.19 30.622-55.394 41.298-22.263 11.21-47.124 16.876-76.32 20.341-3.1808 0.37722-6.6682 1.3832-9.8478 1.2328-56.378-2.6726-99.568-23.584-129.87-51.776-33.518-31.186-59.67-72.73-63.395-130.67-4.0616-63.172 21.298-111.53 50.47-143.62 22.512-24.758 51.885-44.331 89.861-55.474 13.576-3.9831 28.471-5.8778 42.469-6.7802zm156.95 314.36c26.739-32.614 49.085-79.832 43.084-139.92-5.2495-52.571-30.284-93.32-62.164-122.04-31.202-28.112-76.417-52.073-134.79-49.311-55.452 2.6239-97.551 26.808-127.41 56.707-29.958 30.002-52.576 71.794-54.778 126.97-2.2441 56.221 20.226 102.53 48.624 133.14 29.555 31.858 65.395 55.672 118.79 61.638-11.7-4.9785-23.42-6.9596-34.467-10.478-34.003-10.83-60.727-29.09-82.475-53.009-27.598-30.351-50.039-76.174-47.393-133.14 2.5727-55.38 26.131-94.586 56.009-124.51 30.625-30.67 69.846-51.838 126.79-54.242 56.142-2.3694 101.06 22.29 130.48 49.927 31.516 29.599 55.106 67.919 59.702 121.43 5.0224 58.471-16.484 104.25-43.084 136.22-20.732 24.914-47.689 43.599-80.013 55.474-10.821 3.975-22.951 5.2695-33.852 11.711 52.243-9.1748 88.913-32.38 116.94-66.569zm30.159-70.268c10.972-37.718 8.3067-80.535-3.6929-114.03-22.34-62.359-74.139-107.91-145.87-118.96-40.117-6.1823-82.015 2.7928-110.79 17.875-52.759 27.655-100.58 84.399-100.32 164.57 0.16434 51.204 19.969 90.944 44.315 119.58 25.66 30.18 58.885 50.751 103.4 60.406 0.69058-0.0629 0.95832 0.8956 1.231 0-7.3458-5.5875-7.2548-18.623-8.6168-30.203 10.916-1.5268 14.489-16.726 5.5394-23.423-3.3876-1.7438-11.229 0.97265-13.541-1.8492 3.4997-12.932 14.532-18.321 27.697-21.573-22.643-5.8106-40.288-16.783-54.163-32.668-13.199-15.112-24.781-35.863-26.466-61.022-2.7802-41.52 13.726-69.958 33.852-88.759 17.959-16.777 42.196-28.838 73.859-28.354 30.602 0.46783 54.443 12.301 72.628 29.586 20.805 19.776 35.903 47.135 33.236 86.294-3.4455 50.6-37.927 82.875-83.706 96.156 17.76-0.93813 28.207 5.4476 31.39 19.108-7.5034 2.1962-15.934 1.2962-18.465 7.3966-4.1718 10.059 6.6356 15.367 8.0013 21.573 1.1491 5.222-0.22035 11.592-1.231 15.41-1.1706 4.4219-4.7953 7.8429-4.3084 11.711 70.342-18.784 116.5-61.709 136.02-128.82zm-70.166-46.229c1.852-33.497-12.259-60.354-30.774-78.897-18.462-18.488-46.624-33.082-79.398-30.819-56.308 3.8882-98.742 49.202-98.478 105.4 0.10278 21.965 7.5964 40.18 16.003 53.625 2.5555 4.0878 6.7359 12.32 9.2323 11.711-1.4747-8.6072-8.0506-14.63-11.694-22.19-12.148-25.208-12.16-60.936 0-86.91 15.478-33.062 49.554-60.945 97.863-57.94 50.433 3.1374 90.21 43.132 93.554 93.074 1.0716 16.011-1.4224 28.044-4.9239 38.832-2.4447 7.5316-6.9821 14.107-6.1549 20.341 9.0711-12.678 13.751-27.761 14.772-46.229zm-6.1549-11.095c-3.3734-49.552-39.524-86.023-86.784-91.841-53.898-6.6354-105.13 33.383-108.94 88.143-2.0853 29.944 6.8165 52.584 20.311 69.651 0.68627-1.9841 1.0482-4.2925 1.8465-6.1638 18.665-15.62 28.566-40.016 62.164-40.681 2.0804-8.6836-12.586-4.1242-14.156-10.479-0.61117-2.4717 0.25789-7.1698 5.5394-6.7802-0.29852 2.783-4.2376 1.92-3.0774 6.1638 14.95 9.3259 38.086-5.8267 29.543-24.039 4.8931 1.8997 6.302-4.6919 8.0014-8.013-1.6686-0.38339-1.532-2.5752-3.6929-2.4655-1.5233 0.93998 0.12987 5.0611-2.462 4.9311-0.5921-1.6236-1.1897-5.2799 0-6.7802-6.1789-3.0579-11.734-6.7401-12.925-14.793-5.7967-1.1804-10.836-3.1195-14.772-6.1638-5.5074 4.9631-9.404 11.539-8.0013 23.423-2.6897 4.0866-4.4906 9.0633-5.5394 14.793 1.9825 1.3826 3.6572-1.8042 6.7704-1.2328 2.1647-1.3949-1.98-2.7102 0-3.6983 2.6466 1.9743 6.4405 5.7348 6.1549 8.6294-2.3481-0.19416-3.9016-3.5029-6.1549-1.8491-1.8846 7.0243 9.0495 1.2106 9.8478 5.5474-1.6901 1.5613-4.2973 1.2543-6.7704 0.61638-2.0206 0.99855 1.6514 3.8709-1.231 3.6983-3.1285-1.1816-2.9999-5.6251-4.9239-8.013-21.496 0.63364-41.701-7.8194-43.7-24.039-1.3048-10.586 3.2055-12.105 6.1549-18.491 2.838-6.146 2.5807-10.8 10.463-11.711 0.0449-2.9488 0.43023-6.1743 2.462-8.6294 1.8452-2.2288 12.075-6.538 14.156-6.7802 4.9184-0.572 8.1214 2.8274 12.31 3.6983 1.1996-1.0589 1.8643-2.6529 3.6929-3.0819 8.7966 2.725 13.266-7.2049 20.311-8.6294 4.3066-0.87033 8.8932 2.0359 14.772 2.4655 3.2787 0.23978 6.7728-1.1372 9.2323-0.61637 1.4599 0.3088 2.6232 2.9408 4.9239 3.6983 1.8102 0.59605 3.9373-0.47091 4.9239 0 1.218 0.58187 2.0225 2.7996 3.6929 3.6983 7.3834 3.9744 16.272 4.5193 17.234 12.944 7.589 2.7466 12.494 10.512 12.31 19.108-0.0972 4.5304-2.6207 7.1784-4.3084 11.095-0.74228 1.7228-0.48131 3.8253-1.231 5.5474-3.1827 7.3158-10.727 9.1206-18.465 9.2458-4.746 3.6712-11.135 5.6966-11.694 13.56 0.35267 1.496 3.9816-0.28908 3.6929 1.8491-2.561 6.3672 5.2778 5.1671 3.0774 12.944 17.831 8.4426 29.871 22.684 45.546 33.285 1.6255 3.5941 5.7259 7.7103 8.6168 8.013 6.5076-16.136 12.583-29.681 11.079-51.776zm-111.4-76.431c-4.5491 0.58063-7.4111 2.8514-12.31 3.0819-0.0437 2.304 0.98909 3.53 2.462 4.3147-0.71643-5.8544 7.5268-2.7355 9.2323-6.1638 0.33606 2.9506 4.2382 2.3299 5.5394 4.3147-3.5101 3.5787 4.4161 3.8049 0.61549 8.013 6.7876-1.6611 3.6234 6.644 5.5394 9.8621 2.0619-0.1954 3.88-0.63487 4.9239-1.8492-1.4359-0.20588-2.6521-0.6318-3.0774-1.8492-0.18834-1.4214 1.7782-0.6848 1.8465-1.8492-3.5784-0.16087-0.34652-3.3149 0-4.9311 3.2559 3.445 8.6611 1.1915 13.541 2.4655 1.0137-1.0392 1.3368-2.77 2.462-3.6983 1.9345 1.5558 2.1327 4.8497 4.9239 5.5474-1.1183-2.8317-0.15633-2.3145 2.462-1.8492-0.41607-3.6921-2.8245-5.3903-4.3084-8.013 2.7402-1.4497-0.56994-2.1728-0.61549-4.3147 2.177-0.54241 3.171 1.5835 3.6929-0.61638-1.4359-0.20587-2.6521-0.63179-3.0774-1.8492 0.72751-0.29894 1.3953-0.65706 1.8465-1.2328-1.4686-0.99483-4.4604-0.46413-4.9239-2.4655 0.92077-0.10478 2.2712 0.22005 2.462-0.61637-1.2605-0.95417-5.5098-0.95417-6.7704 0 3.0824 4.4219 2.79 20.033-4.9239 14.793 1.4322-3.8974 3.1322-7.2548 1.8465-12.328-5.6465-6.9713-18.687-6.2822-23.389 1.2328zm-26.466 16.026c1.5769 0.68048 0.96878 3.5497 3.6929 3.0819 0.99462-3.0246-3.5157-5.4772 0.61548-6.1638 0.16065-1.8048-1.3916-1.8935-1.231-3.6983 3.3384 0.18245-0.17849-2.9247 2.462-3.6983-1.5738-1.5058-2.4724-3.6878-4.3084-4.9311-4.7682 0.79822-7.1046 5.1092-6.7704 9.2458-2.2687-0.19355-1.4476-3.4813-2.462-4.9311-5.508 0.23668-7.4246 4.0706-8.6168 8.6294 2.9599 0.49865 2.2231-2.7047 5.5394-1.8492 0.93615 1.7333 0.58594 4.7554 1.231 6.7802 2.4453 0.59974 0.25297-3.445 2.462-3.0819 1.1602 2.1253 5.031 1.5366 5.5394 4.3147-0.83213 3.3007 0.84015-3.0979 1.8465-3.6983zm80.629 6.7802c4.7036-0.10663 4.1582-3.8474 8.0013-3.6983 4.9627 0.19292 6.2386 7.4533 9.8478 10.479-0.29666-11.762-13.358-18.903-17.849-6.7802zm-36.314-0.61638c0.85923 4.4817 7.3606 3.3131 11.079 4.9311-0.24004-3.7328 3.5034-3.477 2.462-8.013-1.2359-2.2214-6.078-2.4742-8.0013-0.61638-0.64442 1.7437 1.0156 4.2284 0 4.3147-1.055-0.79266-2.4201-1.2747-2.462-3.0819 0.36068-1.2827 1.2938-1.9922 1.8465-3.0819h-3.0774c1.4427 2.542 0.0191 4.6068-1.8465 5.5474zm-70.781 4.3147c-11.722 9.21-5.7924 33.498 8.0013 33.901-2.5296-5.2744-8.895-6.7068-12.31-11.095-1.2119-7.6894-0.58226-17.594 4.9239-18.491 5.4077-0.88142 10.632 8.8543 16.618 4.3147-5.1129-2.8927-13.282-2.725-15.387-8.6294 0.66966-4.4657 4.3096-5.9573 6.1549-9.2457-5.0273 0.7187-8.3282 3.1657-8.0013 9.2457zm52.932-3.6983c-0.43577 2.2856 1.0512 2.6455 0.61549 4.9311 4.1964 2.0784 12.413 2.3225 9.2323 9.8621 1.0826 1.3813 3.6917 1.234 4.9239 2.4655 0.25173 1.4849-1.1239 1.34-0.61549 3.0819 1.6003 0.24656 1.8563 1.8393 3.6929 1.8492 0.55271-1.0898 1.4858-1.7992 1.8465-3.0819-0.99278-0.85493-3.1728-0.52084-3.6929-1.8492-0.13848-2.1931 0.41484-3.6934 1.8465-4.3147 2.0324 2.4852 4.2352 4.7985 9.2323 4.3147-0.92692 4.1563 5.2483 2.5796 6.1549 3.0819 0.76074 1.9946-1.9917 0.47092-1.231 2.4655 1.3516 1.4553 3.0097 3.2853 5.5394 1.8492 0.44622-1.8855-1.0617-1.8128-0.61549-3.6983 1.4901-0.76802 2.99-1.5262 4.9239-1.8492-0.8703-3.7877-3.7403-6.9744-3.0774-10.479-2.5857-0.69774-4.7165-1.8516-7.3858-2.4655-1.9326 1.3523-4.1933 2.3755-5.5394 4.3147-1.8809-0.58187-1.9289-2.9993-4.3084-3.0819-0.47762 1.3708-0.35575 3.342-1.8465 3.6983h-5.5394c1.0032-3.265-1.8612-2.6566-3.0774-3.6983 0.37237-1.4762 0.88507-2.8126 0.61549-4.9311-2.7925-2.0328-7.2141-3.9596-11.694-2.4655zm57.856 32.668c4.887-1.528 12.879-6.3444 9.2323-12.328-1.0833 6.1059-6.2429 8.1301-9.2323 12.328zm-33.852 25.272c3.1458-1.2808 4.767-0.12082 6.1549 1.8491 1.5584-1.7265 3.9816-2.5876 4.9239-4.9311-1.5282 0.0924-2.5543-0.31867-3.0774-1.2328-0.37975-2.64 2.004-2.513 1.8465-4.9311-3.9084 0.44688-1.596-1.324-1.231-3.0819-3.4892 0.33038-4.7719 0.73349-7.3858-0.61639-0.33483 4.0928-1.8625 9.8979-1.231 12.944zm-8.6168 4.3147c-2.4878 3.8783-11.042 1.6803-12.925 6.1638 3.3359 6.7395 23.222-0.0295 22.158-4.9311-1.3171-2.1734-6.0915-0.88575-9.2323-1.2328zm-12.31 11.711c1.2027 4.115-1.2211 5.198 0 8.6294 9.1837 3.4807 26.385 1.0935 29.543-7.3966-7.3698 2.0156-18.148 5.2688-26.466 2.4655 7.5606-2.0809 21.988-0.42037 25.235-8.6294-1.1627-0.0684-0.42715-2.0378-1.8465-1.8491-5.8779 5.2078-16.001 6.1651-26.466 6.7802zm39.391 15.41c1.146 5.3323 5.5486 2.9993 8.6168 4.3147-0.55086-3.0542 2.0237-2.537 3.6929-1.8491 0.445-1.8837-0.62902-2.2467-0.61548-3.6983 0.79336-0.84938 2.6737-0.6096 4.3084-0.61638 0-2.0562-2.0022-2.1043-1.8465-4.3147h1.8465c-1.2414-3.5473-0.73612-3.7051 0-7.3966-0.55578-1.0867-1.3768-1.9089-2.462-2.4655-1.2716 8.5887-5.5843 14.132-13.541 16.026zm-69.55-5.5474c2.4164 0.45613 7.043-1.3006 6.7704 1.8492-0.60257 3.3735-4.4309 1.3591-8.0014 2.4655-3.7692 1.168-9.1874 5.773-13.541 9.8621-5.769 5.418-16.598 12.771-6.7704 16.642 7.8912-6.7383 14.126-26.016 28.928-17.875 2.0619-2.5845 0.97863-5.9401 1.8465-9.2457 1.3473-5.132 6.6023-9.5237 6.1549-11.711-5.9044 1.8941-12.302 3.2952-15.387 8.013zm22.158 9.2458c-3.3483 5.4957-12.626 5.8772-8.6168 14.177 6.2971 2.1179 12.084 4.7461 19.08 6.1638 4.0444-9.4991 17.746-11.957 16.618-24.655-2.8436-0.17628-0.84937 4.491-3.6929 4.3147v-5.5474c-3.3095 0.17813-1.1793 5.8045-4.3084 6.1638-0.37483-1.4738 0.77243-4.4718-0.61549-4.9311-2.2416 2.2751-2.3573 6.6791-5.5394 8.013 0.22281-3.4758 1.9862-5.4069 3.0774-8.013-5.9715-0.37291-10.989 5.3878-14.156 9.8621-0.28005-4.3899 3.5932-4.6204 3.6929-8.6294-0.89-1.634-1.375 2.2634-3.6929 1.2328-0.48378-1.6365 3.5409-3.5066 0.61549-3.6983-2.7223 0.82656-1.0439 3.22-2.462 5.5474zm54.778 3.6983c2.1216 1.5736 2.4312 4.9619 5.5394 5.5474 3.1378-0.9671 4.9485-3.2625 6.7704-5.5474-2.6694-0.20341-1.988-3.7624-3.6929-4.9311-2.1936 2.3238-5.5646 3.4678-8.6168 4.9311zm-19.08-0.61639c11.979 3.6182 15.095 16.113 22.158 24.655 5.2624-7.47 17.487-11.25 17.849-21.573-6.891 0.62255-9.2766 8.5437-16.618 10.479-7.224-4.208-12.93-22.373-23.389-13.56zm24.62 11.711c1.6187-2.8988 5.2218-3.8111 6.7704-6.7802-2.8122-0.78712-4.4524 4.4497-8.0013 4.9311-4.5958-3.4142-7.3957-11.903-12.925-12.328 5.4188 4.0244 8.3436 10.547 14.156 14.177zm-103.4 9.2457c-2.3265 0.26567-2.9888-2.9894-4.9239-1.2328 0.63088 2.039 1.7049 3.6342 4.3084 3.6983 8.9283-6.4683 10.516-20.288 24.004-22.19-11.526-2.2621-16.183 14.19-23.389 19.724zm100.32 8.013c6.9544-5.7736 12.824-12.635 19.696-18.491-8.2672 3.432-11.932 11.473-19.08 16.026-8.1023-7.9125-10.926-24.396-24.62-24.655 13.41 3.6237 16.643 17.439 24.004 27.121zm-87.399-2.4655v-3.0819c-4.4463 2.3268-4.4475 9.1064-10.463 9.8621 0.30097 1.9453-1.1091 2.1764-0.61549 4.3147 4.1884 3.4074 7.3791 7.8145 13.541 9.2458 5.7948-12.53 16.064-23.708 15.387-40.681-14.816-13.494-22.156 15.485-32.621 19.724-3.696-1.2297-3.3729-6.4844-8.0013-6.7802-0.36068 4.7572 3.6418 10.264 8.6168 11.711 7.6887-4.5267 11.21-17.052 17.849-22.806 5.4686-4.7388 13.661-3.4462 11.694 6.7802-1.5055 7.8305-11.505 20.212-14.772 25.272 0.80936-4.9483 4.5564-10.222 4.3084-14.177-1.9597 3.5843-3.8197 7.2696-6.1549 10.479 0.23266-5.116 4.751-9.2044 4.3084-12.944-0.78475 1.2691-0.98171 3.1263-3.0774 3.0819zm105.25-11.711c-6.8922 4.3954-10.732 12.066-17.849 16.026-9.1615-7.5328-11.055-28.598-26.466-27.737-5.356 0.29895-12.806 7.4114-16.003 12.328-7.4948 11.525-11.133 28.664-17.234 40.681 3.4277 0.96587 8.1829 3.3599 9.8478-0.61638 0.95093 4.5945 8.3645 2.7182 13.541 3.0819 1.5633-0.48879 0.33236-3.7766 2.462-3.6983-0.0812 1.5194-0.0929 2.9697 0.61549 3.6983 3.3723-0.11588 5.8361-1.1415 8.6168-1.8491 1.8335-7.5458-0.60626-15.712 0-24.039-1.7357-1.7949-0.76751 1.8436-3.0774 1.2328 0.0634-3.3513-0.20865-6.3654-1.8465-8.013-2.1499 5.4494-1.5344 13.668-3.6929 19.108-3.3021-4.9323 2.3598-14.344 0-20.341-4.2413 4.1766-2.4515 14.393-6.1549 19.108-0.69181-4.0891 1.2482-10.586 1.8465-15.41-5.3332 3.289-4.3195 12.933-9.2323 16.642 0.67273-5.9006 3.3501-9.7943 4.3084-15.41-4.69 0.0289-2.718 6.7297-6.7704 7.3966 5.2723-11.146 11.726-33.928 27.697-28.354 11.658 4.0694 11.699 21.729 22.158 28.354 10.725-8.3674 22.309-19.16 28.928-29.586-2.8897 4.0952-7.7379 4.8737-11.694 7.3966zm-72.012 8.013c0.59703 9.4387-7.4677 14.037-14.156 8.013-1.2747-5.6072 4.9787-10.671 0.61549-13.56-3.8111 3.5405-4.9898 13.267-1.8465 18.491-1.0383 3.3864-5.8939 1.4627-7.3859 0-1.5763 4.1748-3.9994 7.5002-3.6929 13.56 6.9673 6.6274 7.0436-5.4057 8.6168-9.8621 0.88015 2.3108 6.1875-1.1872 5.5394 3.6983-1.9363 0.29525-2.4059-0.87773-3.6929-1.2328-0.18834 1.8658-1.9043 2.2017-1.231 4.9311 2.3819-0.97451 6.9815-0.97328 8.6168 0.61638-1.6144-2.6344 0.8266-1.6673 1.231-3.6983 0.16926-2.4298-2.6312-1.8849-2.462-4.3147 2.4749 0.42406 3.5132-0.5905 5.5394-0.61639 0.84506-1.4047-1.5867-2.317 0-2.4655 9.8152-1.2155 14.804-18.75 2.462-20.341-2.0114 3.305 1.2519 4.2968 1.8465 6.7802zm35.698 32.668c6.3389 1.4263 11.704-2.9291 16.618-4.9311 0.86414-2.9506-1.5596-5.7934 0-7.3966 2.0674 1.0115 0.45054 5.7126 3.6929 5.5474 3.9274-1.5878 10.886-4.7005 6.7704-10.478-4.029-1.3412-5.5154 2.9278-9.8478 3.0819-6.7778-4.1014-6.7445-15.024-15.387-17.259-2.0483 9.0442-1.8434 20.344-1.8465 31.436zm-46.777 0c4.9707 1.9342 7.0012-7.2043 6.7704-10.479h-2.462c-0.64627 4.2839-3.0153 6.8425-4.3084 10.479zm-6.1549-6.7802c-1.4427 2.5512-0.64134 7.4219 3.6929 6.1638 2.5118-1.631 2.433-3.9596 1.231-6.7802-1.7732 0.0733-4.029-0.33655-4.9239 0.61637zm24.004 22.19c4.2395 0.68541 5.7339 4.1199 9.2323 5.5474 3.6006-3.1744 8.7996-4.748 13.541-6.7802-7.4345 1.3881-16.097 0.46907-22.773 1.2328zm43.7 44.996c-2.0114-1.2352-4.2887-1.6772-5.5394 0.61638 0.69365 2.3872 5.6354 0.52084 4.3084 4.9311-6.6202 0.41422-9.1677 7.3004-16.003 5.5474-0.0942 2.8089-0.50901 2.4187 0 4.9311 6.6036-0.0715 11.799 9.4596 4.9239 9.2457 2.8356 4.7042-3.1033 5.921-4.3084 8.6294 14.524-4.152 21.27-16.093 20.927-35.134-14.407-6.382-10.745-34.109 9.2323-31.436-5.6046-17.97-38.436-14.724-48.008-2.4655 5.7031 0.57508 5.1135-5.1517 9.8478-5.5474 0.81799 0.61885 2.2902 0.58249 2.462 1.8492-0.71273 2.1629-1.7492 4.001-2.462 6.1638 1.7154 0.54242 3.7452 0.76925 4.9239 1.8492-1.2827 3.0295-6.3063 2.3139-6.7704 6.1638 4.9227 4.8972-0.70781 9.1292 0.61549 14.793-1.4286 1.6519-4.714 1.4436-4.9239 4.3147 6.5882 3.6083 9.6638 13.556 19.08 12.328 0.8106-1.859 1.988-3.3513 1.8465-6.1638-5.3775-6.2797-12.233-12.084-9.2323-20.957 1.6027-4.7375 8.5934-5.958 9.2323-9.8621 0.77552-4.7418-2.4736-6.5546-5.5394-8.013-1.7394 0.74768-3.6566 4.5249-4.9239 3.6983 1.1454-15.019 23.374 2.6147 9.8478 9.8621 6.3789 1.022 6.1376 11.968 0 12.944-0.44623-1.4023-3.5095-0.18369-3.0774-2.4655 0.75275-1.8787 2.3487 0.90114 3.0774-0.61639v-4.3147c-1.7677-0.73226-3.2676-1.2919-4.9239-0.61638-2.8706 4.07-0.53486 10.937 3.0774 12.328 0.0874-2.8015 8.3436-6.7044 8.0013-0.61637-1.4452-0.19663-2.3099-0.97389-4.3084-0.61639 0.16679 2.5555-0.80814 2.4014 0 4.3147 3.5674-1.5138 10.269-2.6024 8.6168 4.3147zm-88.015-28.354c19.686-12.699 34.989 21.035 14.156 27.121-0.92138 16.332 2.4989 28.317 13.541 32.668 0.31574-2.5765-2.8245-1.6914-3.6929-3.0819 3.2461-2.7435 8.6722-1.6347 12.925-0.61639 4.751-2.1906 3.3292-9.8103 3.0774-14.793-2.0822-1.8411-3.2344 2.4464-4.9239 0.61639 4.5835-4.3208 13.906-1.168 17.849-6.7802 1.7868 0.47093 1.5966 2.921 4.3084 2.4655 0.0252-4.7511-5.1861-4.2574-8.6168-5.5474-1.7418 0.92705-2.622 2.7158-4.9239 3.0819-12.084-1.8282-14.942 5.5826-22.158 8.6294 0.79152-1.9626 1.9492-4.7991 0-6.1638-2.742-0.4592-4.402 3.363-5.5394 2.4655v-4.3147c1.6994-0.7637 4.8488-0.0752 4.9239-2.4655-2.1536-0.8654-3.9397 1.729-4.9239 0 0.70842-1.3449 0.12186-3.9868 1.8465-4.3147 3.7834 0.52578 5.1178 3.5048 8.6168 4.3147 1.5609-4.2216 6.7784-4.2635 7.3859-8.013 0.66042-4.0774-5.2951-7.6875-6.7704-13.56-1.0753-4.2802 0.65857-6.901-1.231-10.479-1.7843-0.67863-4.1625-0.76246-4.3084-3.0819 2.7094-3.2607 4.4266 2.0957 6.7704 0.61638 0.9694-4.0521-1.7751-4.3862-2.462-6.7802 4.5632-0.46044 5.2126 2.9987 6.1549 6.1638 2.8245-0.32976 2.3167-2.6264 1.8465-4.9311 1.5313 0.93197 2.814 2.113 3.0774 4.3147-5.5726 4.8799-1.6237 13.499 3.6929 16.026 1.8366-0.01 2.0927-1.6026 3.6929-1.8491 1.4907 1.2617 3.1593 3.5874 4.9239 1.2328 0.24435-3.943-4.5257-2.8643-8.0013-3.0819-0.47269-1.5446-3.3981-4.4996-0.61549-5.5474 1.4962 1.9749 7.6868 7.0767 9.2323 3.0819-1.5935-2.1025-6.6805-0.70637-6.1549-4.9311 1.4809-1.8048 3.5563-3.0135 6.1549-3.6983 0.34898-3.8678-1.5172-6.1244 1.8465-6.7802-14.053-13.119-43.727-7.0274-51.701 8.013zm47.393 3.6983c3.9293 0.43024 7.2308 6.488 11.694 2.4655-0.89492-0.95293-3.1513-0.54304-4.9239-0.61638-0.65119-3.5035-4.9165-6.0689-6.7704-1.8492zm-19.08 1.8492h4.3084v-3.6983h-5.5394c0.20249 1.4411 0.73981 2.5463 1.231 3.6983zm5.5394 12.328c1.5424-1.1261 4.0536-1.2827 4.9239-3.0819-1.3412-1.9441-5.5234-1.0429-8.6168-1.2328 0.46469 2.2054 1.4236 3.9165 3.6929 4.3147zm2.462 1.2328c5.4618 0.093 12.269 2.4908 17.849 0-0.49363-2.1382 0.91646-2.3694 0.61548-4.3147-4.7072 1.7561-13.107 0.44811-18.465 4.3147zm-3.6929 11.711c4.3927 0.88759 9.7512 0.21265 11.079-3.6983-4.735 0.18923-10.914-1.0676-11.079 3.6983zm15.387-3.0819c0.91954 4.356 11.813 4.1224 14.772 2.4655-2.4934-3.2249-9.6441-3.7803-14.772-2.4655zm-6.7704 20.341c0.99217 1.2667 3.0861 1.4294 5.5394 1.2328 0.87646-3.8481 4.3804-5.0648 6.1549-8.013-6.9415-0.78773-11.875 0.43518-11.694 6.7802zm19.696-5.5474c0.78352 4.7628 4.4635 6.6249 10.463 6.1638-0.62595-2.8662-3.7391-3.2416-3.6929-6.7802-2.2619 0.20032-5.4489-0.5264-6.7704 0.61638zm-3.6929 0c-3.0393 1.6821-6.3494 3.0924-8.0013 6.1638 5.4354 7.4249-7.067 10.877-10.463 15.41 4.5915 0.94922 8.5879 2.4945 14.156 2.4655-0.74659-3.2132 2.5364-2.3916 4.9239-2.4655 0.19265-3.8912-5.9191-1.4695-6.7704-4.3147 2.2471-2.2023 4.8968-0.25025 8.6168-0.61638 0.54039 1.0898 1.9505 1.7992 0.61548 3.0819 2.5869-0.69651 3.6523-2.9173 6.1549-3.6983 0.80137-5.1271-1.2377-10.664-4.9239-9.2457 1.2704 1.3135-1.1288 4.1809-3.0774 4.3147 1.3818-3.4659 1.9019-9.1163-1.231-11.095zm-18.465 13.56v2.4655c2.4749 1.2932 5.3264 0.26012 5.5394-2.4655-0.99771-0.92642-4.5417-0.92642-5.5394 0zm26.466 5.5474c3.8985 0.67925 5.5702 0.0807 6.1549-3.6983-3.6892-0.40742-5.2513 1.316-6.1549 3.6983z"/>
  </g>
</svg>
